<svg xmlns="http://www.w3.org/2000/svg" height="512pt" version="1.1" viewBox="-11 0 512 512" width="512pt">
<g id="surface1">
<path d="M 490.539062 200.679688 L 490.539062 512 L 0 512 L 0 200.679688 L 245.269531 8.328125 Z M 490.539062 200.679688 " style=" stroke:none;fill-rule:nonzero;fill:rgb(100%,60.392157%,0%);fill-opacity:1;" />
<path d="M 490.539062 200.679688 L 490.539062 512 L 245.441406 512 C 245.328125 511.351562 245.269531 510.679688 245.269531 510 L 245.269531 8.328125 Z M 490.539062 200.679688 " style=" stroke:none;fill-rule:nonzero;fill:rgb(90.196078%,45.882353%,0%);fill-opacity:1;" />
<path d="M 73.96875 0 L 416.570312 0 L 416.570312 415.679688 L 73.96875 415.679688 Z M 73.96875 0 " style=" stroke:none;fill-rule:nonzero;fill:rgb(88.235294%,89.411765%,98.431373%);fill-opacity:1;" />
<path d="M 245.269531 0 L 416.570312 0 L 416.570312 415.679688 L 245.269531 415.679688 Z M 245.269531 0 " style=" stroke:none;fill-rule:nonzero;fill:rgb(77.254902%,78.823529%,96.862745%);fill-opacity:1;" />
<path d="M 490.539062 200.789062 L 490.539062 512 L 0 512 L 0 200.789062 L 245.269531 393.140625 Z M 490.539062 200.789062 " style=" stroke:none;fill-rule:nonzero;fill:rgb(100%,71.764706%,30.980392%);fill-opacity:1;" />
<path d="M 490.539062 200.789062 L 490.539062 512 L 245.441406 512 C 245.328125 511.351562 245.269531 510.679688 245.269531 510 L 245.269531 393.140625 Z M 490.539062 200.789062 " style=" stroke:none;fill-rule:nonzero;fill:rgb(100%,60.392157%,0%);fill-opacity:1;" />
<path d="M 159.300781 63 L 331.238281 63 L 331.238281 93 L 159.300781 93 Z M 159.300781 63 " style=" stroke:none;fill-rule:nonzero;fill:rgb(59.215686%,63.137255%,94.117647%);fill-opacity:1;" />
<path d="M 159.300781 122.671875 L 331.238281 122.671875 L 331.238281 152.671875 L 159.300781 152.671875 Z M 159.300781 122.671875 " style=" stroke:none;fill-rule:nonzero;fill:rgb(59.215686%,63.137255%,94.117647%);fill-opacity:1;" />
<path d="M 159.300781 182.328125 L 331.238281 182.328125 L 331.238281 212.328125 L 159.300781 212.328125 Z M 159.300781 182.328125 " style=" stroke:none;fill-rule:nonzero;fill:rgb(59.215686%,63.137255%,94.117647%);fill-opacity:1;" />
<path d="M 191.769531 242 L 298.769531 242 L 298.769531 272 L 191.769531 272 Z M 191.769531 242 " style=" stroke:none;fill-rule:nonzero;fill:rgb(59.215686%,63.137255%,94.117647%);fill-opacity:1;" />
<path d="M 245.269531 242 L 298.769531 242 L 298.769531 272 L 245.269531 272 Z M 245.269531 242 " style=" stroke:none;fill-rule:nonzero;fill:rgb(42.745098%,46.27451%,90.588235%);fill-opacity:1;" />
<path d="M 245.269531 63 L 331.238281 63 L 331.238281 93 L 245.269531 93 Z M 245.269531 63 " style=" stroke:none;fill-rule:nonzero;fill:rgb(42.745098%,46.27451%,90.588235%);fill-opacity:1;" />
<path d="M 245.269531 122.671875 L 331.238281 122.671875 L 331.238281 152.671875 L 245.269531 152.671875 Z M 245.269531 122.671875 " style=" stroke:none;fill-rule:nonzero;fill:rgb(42.745098%,46.27451%,90.588235%);fill-opacity:1;" />
<path d="M 245.269531 182.328125 L 331.238281 182.328125 L 331.238281 212.328125 L 245.269531 212.328125 Z M 245.269531 182.328125 " style=" stroke:none;fill-rule:nonzero;fill:rgb(42.745098%,46.27451%,90.588235%);fill-opacity:1;" />
</g>
</svg>